<?xml version="1.0" standalone="no"?>
<!DOCTYPE svg PUBLIC "-//W3C//DTD SVG 20010904//EN"
 "http://www.w3.org/TR/2001/REC-SVG-20010904/DTD/svg10.dtd">
<svg version="1.0" xmlns="http://www.w3.org/2000/svg"
 width="1024.000000pt" height="1024.000000pt" viewBox="0 0 1024.000000 1024.000000"
 preserveAspectRatio="xMidYMid meet">

<g transform="translate(0.000000,1024.000000) scale(0.100000,-0.100000)"
fill="#000000" stroke="none">
<path d="M4902 9379 c-601 -40 -1150 -249 -1647 -628 -127 -97 -389 -356 -493
-488 -637 -809 -803 -1881 -437 -2828 239 -618 673 -1127 1262 -1479 93 -55
355 -179 466 -221 127 -47 312 -99 438 -125 257 -53 265 -53 962 -57 l657 -4
0 545 0 544 -602 5 c-565 4 -610 6 -718 26 -358 67 -656 211 -920 443 -542
477 -749 1234 -524 1918 45 139 158 362 242 479 80 113 235 278 341 363 496
401 1172 525 1786 328 480 -154 878 -497 1095 -943 101 -208 158 -408 179
-631 15 -150 15 -2862 0 -3012 -53 -545 -345 -1032 -804 -1339 -275 -184 -561
-285 -899 -317 -146 -14 -335 -1 -499 32 -300 62 -610 216 -845 420 l-84 73
-126 -124 c-70 -68 -247 -243 -394 -388 l-267 -265 66 -60 c307 -281 686 -507
1069 -635 521 -174 1053 -202 1583 -85 887 197 1637 787 2030 1599 162 333
253 678 281 1070 13 189 13 2885 0 3065 -70 921 -540 1719 -1316 2236 -140 93
-433 242 -584 298 -424 155 -847 216 -1298 185z"/>
</g>
</svg>
